<svg xmlns="http://www.w3.org/2000/svg" viewBox="0 0 1351.68 760.32"><rect width="1351.68" height="760.32" fill="#ffffff" id="bg" class="bg"/><g><g transform="translate(0.00,&#10;                                0.00) rotate(180, 67.584, 67.584)"><svg xmlns="http://www.w3.org/2000/svg" id="Layer_1" data-name="Layer 1" viewBox="0 0 100 100" width="135.168" height="135.168"><path d="M50,100a50,50,0,1,1,50-50v50Z" fill="#3D348B"/></svg></g><g transform="translate(135.17,&#10;                                0.00) rotate(270, 67.584, 67.584)"><svg xmlns="http://www.w3.org/2000/svg" id="Layer_1" data-name="Layer 1" viewBox="0 0 100 100" width="135.168" height="135.168"><path d="M50,100h0A50,50,0,0,1,0,50V0H100V50A50,50,0,0,1,50,100Z" fill="#F18701"/></svg></g><g transform="translate(405.50,&#10;                                0.00) rotate(0, 67.584, 67.584)"><svg xmlns="http://www.w3.org/2000/svg" id="Layer_1" data-name="Layer 1" viewBox="0 0 100 100" width="135.168" height="135.168"><path d="M50,100a50,50,0,1,1,50-50v50Z" fill="#3D348B"/></svg></g><g transform="translate(270.34,&#10;                                135.17) rotate(180, 67.584, 67.584)"><svg xmlns="http://www.w3.org/2000/svg" id="Layer_1" data-name="Layer 1" viewBox="0 0 100 100" width="135.168" height="135.168"><path d="M50,100a50,50,0,1,1,50-50v50Z" fill="#3D348B"/></svg></g><g transform="translate(405.50,&#10;                                135.17) rotate(90, 67.584, 67.584)"><svg xmlns="http://www.w3.org/2000/svg" id="Layer_1" data-name="Layer 1" viewBox="0 0 100 100" width="135.168" height="135.168"><path d="M100,100A50,50,0,0,0,0,100Z" fill="#F7B801"/></svg></g><g transform="translate(540.67,&#10;                                0.00) rotate(0, 67.584, 67.584)"><svg xmlns="http://www.w3.org/2000/svg" id="Layer_1" data-name="Layer 1" viewBox="0 0 100 100" width="135.168" height="135.168"><path d="M50,100a50,50,0,1,1,50-50v50Z" fill="#3D348B"/></svg></g><g transform="translate(675.84,&#10;                                0.00) rotate(90, 67.584, 67.584)"><svg xmlns="http://www.w3.org/2000/svg" id="Layer_1" data-name="Layer 1" viewBox="0 0 100 100" width="135.168" height="135.168"><path d="M50,100h0A50,50,0,0,1,0,50V0H100V50A50,50,0,0,1,50,100Z" fill="#F18701"/></svg></g><g transform="translate(540.67,&#10;                                135.17) rotate(0, 67.584, 67.584)"><svg xmlns="http://www.w3.org/2000/svg" id="Layer_1" data-name="Layer 1" viewBox="0 0 100 100" width="135.168" height="135.168"><path d="M50,100a50,50,0,1,1,50-50v50Z" fill="#3D348B"/></svg></g><g transform="translate(675.84,&#10;                                135.17) rotate(0, 67.584, 67.584)"><svg xmlns="http://www.w3.org/2000/svg" id="Layer_1" data-name="Layer 1" viewBox="0 0 100 100" width="135.168" height="135.168"><path d="M100,100A50,50,0,0,0,0,100Z" fill="#F7B801"/></svg></g><g transform="translate(946.18,&#10;                                0.00) rotate(0, 67.584, 67.584)"><svg xmlns="http://www.w3.org/2000/svg" id="Layer_1" data-name="Layer 1" viewBox="0 0 100 100" width="135.168" height="135.168"><path d="M100,100A50,50,0,0,0,0,100Z" fill="#F7B801"/></svg></g><g transform="translate(811.01,&#10;                                135.17) rotate(0, 67.584, 67.584)"><svg xmlns="http://www.w3.org/2000/svg" id="Layer_1" data-name="Layer 1" viewBox="0 0 100 100" width="135.168" height="135.168"><circle cx="50" cy="50" r="50" fill="#7678ED"/></svg></g><g transform="translate(1216.51,&#10;                                0.00) rotate(270, 67.584, 67.584)"><svg xmlns="http://www.w3.org/2000/svg" id="Layer_1" data-name="Layer 1" viewBox="0 0 100 100" width="135.168" height="135.168"><path d="M50,100a50,50,0,1,1,50-50v50Z" fill="#3D348B"/></svg></g><g transform="translate(1081.34,&#10;                                135.17) rotate(90, 67.584, 67.584)"><svg xmlns="http://www.w3.org/2000/svg" id="Layer_1" data-name="Layer 1" viewBox="0 0 100 100" width="135.168" height="135.168"><path d="M50,100a50,50,0,1,1,50-50v50Z" fill="#3D348B"/></svg></g><g transform="translate(1216.51,&#10;                                135.17) rotate(90, 67.584, 67.584)"><svg xmlns="http://www.w3.org/2000/svg" id="Layer_1" data-name="Layer 1" viewBox="0 0 100 100" width="135.168" height="135.168"><path d="M100,100A50,50,0,0,0,0,100Z" fill="#F7B801"/></svg></g></g><g><g transform="translate(135.17,&#10;                                405.50) rotate(180, 67.584, 67.584)"><svg xmlns="http://www.w3.org/2000/svg" id="Layer_1" data-name="Layer 1" viewBox="0 0 100 100" width="135.168" height="135.168"><path d="M50,100h0A50,50,0,0,1,0,50V0H100V50A50,50,0,0,1,50,100Z" fill="#F18701"/></svg></g><g transform="translate(270.34,&#10;                                270.34) rotate(270, 67.584, 67.584)"><svg xmlns="http://www.w3.org/2000/svg" id="Layer_1" data-name="Layer 1" viewBox="0 0 100 100" width="135.168" height="135.168"><path d="M50,100a50,50,0,1,1,50-50v50Z" fill="#3D348B"/></svg></g><g transform="translate(405.50,&#10;                                270.34) rotate(270, 67.584, 67.584)"><svg xmlns="http://www.w3.org/2000/svg" id="Layer_1" data-name="Layer 1" viewBox="0 0 100 100" width="135.168" height="135.168"><path d="M50,100h0A50,50,0,0,1,0,50V0H100V50A50,50,0,0,1,50,100Z" fill="#F18701"/></svg></g><g transform="translate(270.34,&#10;                                405.50) rotate(270, 67.584, 67.584)"><svg xmlns="http://www.w3.org/2000/svg" id="Layer_1" data-name="Layer 1" viewBox="0 0 100 100" width="135.168" height="135.168"><circle cx="50" cy="50" r="50" fill="#7678ED"/></svg></g><g transform="translate(540.67,&#10;                                270.34) rotate(90, 67.584, 67.584)"><svg xmlns="http://www.w3.org/2000/svg" id="Layer_1" data-name="Layer 1" viewBox="0 0 100 100" width="135.168" height="135.168"><path d="M100,100A50,50,0,0,0,0,100Z" fill="#F7B801"/></svg></g><g transform="translate(675.84,&#10;                                270.34) rotate(180, 67.584, 67.584)"><svg xmlns="http://www.w3.org/2000/svg" id="Layer_1" data-name="Layer 1" viewBox="0 0 100 100" width="135.168" height="135.168"><path d="M50,100a50,50,0,1,1,50-50v50Z" fill="#3D348B"/></svg></g><g transform="translate(540.67,&#10;                                405.50) rotate(90, 67.584, 67.584)"><svg xmlns="http://www.w3.org/2000/svg" id="Layer_1" data-name="Layer 1" viewBox="0 0 100 100" width="135.168" height="135.168"><path d="M50,100a50,50,0,1,1,50-50v50Z" fill="#3D348B"/></svg></g><g transform="translate(675.84,&#10;                                405.50) rotate(270, 67.584, 67.584)"><svg xmlns="http://www.w3.org/2000/svg" id="Layer_1" data-name="Layer 1" viewBox="0 0 100 100" width="135.168" height="135.168"><path d="M50,100h0A50,50,0,0,1,0,50V0H100V50A50,50,0,0,1,50,100Z" fill="#F18701"/></svg></g><g transform="translate(946.18,&#10;                                270.34) rotate(180, 67.584, 67.584)"><svg xmlns="http://www.w3.org/2000/svg" id="Layer_1" data-name="Layer 1" viewBox="0 0 100 100" width="135.168" height="135.168"><path d="M50,100h0A50,50,0,0,1,0,50V0H100V50A50,50,0,0,1,50,100Z" fill="#F18701"/></svg></g><g transform="translate(811.01,&#10;                                405.50) rotate(0, 67.584, 67.584)"><svg xmlns="http://www.w3.org/2000/svg" id="Layer_1" data-name="Layer 1" viewBox="0 0 100 100" width="135.168" height="135.168"><circle cx="50" cy="50" r="50" fill="#7678ED"/></svg></g><g transform="translate(946.18,&#10;                                405.50) rotate(90, 67.584, 67.584)"><svg xmlns="http://www.w3.org/2000/svg" id="Layer_1" data-name="Layer 1" viewBox="0 0 100 100" width="135.168" height="135.168"><path d="M100,100A50,50,0,0,0,0,100Z" fill="#F7B801"/></svg></g><g transform="translate(1216.51,&#10;                                270.34) rotate(0, 67.584, 67.584)"><svg xmlns="http://www.w3.org/2000/svg" id="Layer_1" data-name="Layer 1" viewBox="0 0 100 100" width="135.168" height="135.168"><path d="M100,100A50,50,0,0,0,0,100Z" fill="#F7B801"/></svg></g><g transform="translate(1081.34,&#10;                                405.50) rotate(0, 67.584, 67.584)"><svg xmlns="http://www.w3.org/2000/svg" id="Layer_1" data-name="Layer 1" viewBox="0 0 100 100" width="135.168" height="135.168"><path d="M50,100a50,50,0,1,1,50-50v50Z" fill="#3D348B"/></svg></g><g transform="translate(1216.51,&#10;                                405.50) rotate(180, 67.584, 67.584)"><svg xmlns="http://www.w3.org/2000/svg" id="Layer_1" data-name="Layer 1" viewBox="0 0 100 100" width="135.168" height="135.168"><path d="M100,100A50,50,0,0,0,0,100Z" fill="#F7B801"/></svg></g></g><g><g transform="translate(0.00,&#10;                                540.67) rotate(90, 67.584, 67.584)"><svg xmlns="http://www.w3.org/2000/svg" id="Layer_1" data-name="Layer 1" viewBox="0 0 100 100" width="135.168" height="135.168"><path d="M50,100a50,50,0,1,1,50-50v50Z" fill="#3D348B"/></svg></g><g transform="translate(0.00,&#10;                                675.84) rotate(0, 67.584, 67.584)"><svg xmlns="http://www.w3.org/2000/svg" id="Layer_1" data-name="Layer 1" viewBox="0 0 100 100" width="135.168" height="135.168"><circle cx="50" cy="50" r="50" fill="#7678ED"/></svg></g><g transform="translate(135.17,&#10;                                675.84) rotate(90, 67.584, 67.584)"><svg xmlns="http://www.w3.org/2000/svg" id="Layer_1" data-name="Layer 1" viewBox="0 0 100 100" width="135.168" height="135.168"><path d="M100,100A50,50,0,0,0,0,100Z" fill="#F7B801"/></svg></g><g transform="translate(405.50,&#10;                                540.67) rotate(90, 67.584, 67.584)"><svg xmlns="http://www.w3.org/2000/svg" id="Layer_1" data-name="Layer 1" viewBox="0 0 100 100" width="135.168" height="135.168"><path d="M50,100h0A50,50,0,0,1,0,50V0H100V50A50,50,0,0,1,50,100Z" fill="#F18701"/></svg></g><g transform="translate(270.34,&#10;                                675.84) rotate(180, 67.584, 67.584)"><svg xmlns="http://www.w3.org/2000/svg" id="Layer_1" data-name="Layer 1" viewBox="0 0 100 100" width="135.168" height="135.168"><circle cx="50" cy="50" r="50" fill="#7678ED"/></svg></g><g transform="translate(405.50,&#10;                                675.84) rotate(270, 67.584, 67.584)"><svg xmlns="http://www.w3.org/2000/svg" id="Layer_1" data-name="Layer 1" viewBox="0 0 100 100" width="135.168" height="135.168"><path d="M50,100h0A50,50,0,0,1,0,50V0H100V50A50,50,0,0,1,50,100Z" fill="#F18701"/></svg></g><g transform="translate(540.67,&#10;                                540.67) rotate(270, 67.584, 67.584)"><svg xmlns="http://www.w3.org/2000/svg" id="Layer_1" data-name="Layer 1" viewBox="0 0 100 100" width="135.168" height="135.168"><path d="M50,100a50,50,0,1,1,50-50v50Z" fill="#3D348B"/></svg></g><g transform="translate(675.84,&#10;                                540.67) rotate(90, 67.584, 67.584)"><svg xmlns="http://www.w3.org/2000/svg" id="Layer_1" data-name="Layer 1" viewBox="0 0 100 100" width="135.168" height="135.168"><path d="M50,100h0A50,50,0,0,1,0,50V0H100V50A50,50,0,0,1,50,100Z" fill="#F18701"/></svg></g><g transform="translate(540.67,&#10;                                675.84) rotate(90, 67.584, 67.584)"><svg xmlns="http://www.w3.org/2000/svg" id="Layer_1" data-name="Layer 1" viewBox="0 0 100 100" width="135.168" height="135.168"><circle cx="50" cy="50" r="50" fill="#7678ED"/></svg></g><g transform="translate(675.84,&#10;                                675.84) rotate(270, 67.584, 67.584)"><svg xmlns="http://www.w3.org/2000/svg" id="Layer_1" data-name="Layer 1" viewBox="0 0 100 100" width="135.168" height="135.168"><path d="M100,100A50,50,0,0,0,0,100Z" fill="#F7B801"/></svg></g><g transform="translate(946.18,&#10;                                540.67) rotate(0, 67.584, 67.584)"><svg xmlns="http://www.w3.org/2000/svg" id="Layer_1" data-name="Layer 1" viewBox="0 0 100 100" width="135.168" height="135.168"><path d="M50,100a50,50,0,1,1,50-50v50Z" fill="#3D348B"/></svg></g><g transform="translate(811.01,&#10;                                675.84) rotate(90, 67.584, 67.584)"><svg xmlns="http://www.w3.org/2000/svg" id="Layer_1" data-name="Layer 1" viewBox="0 0 100 100" width="135.168" height="135.168"><path d="M100,100A50,50,0,0,0,0,100Z" fill="#F7B801"/></svg></g><g transform="translate(946.18,&#10;                                675.84) rotate(270, 67.584, 67.584)"><svg xmlns="http://www.w3.org/2000/svg" id="Layer_1" data-name="Layer 1" viewBox="0 0 100 100" width="135.168" height="135.168"><path d="M100,100A50,50,0,0,0,0,100Z" fill="#F7B801"/></svg></g><g transform="translate(1216.51,&#10;                                540.67) rotate(180, 67.584, 67.584)"><svg xmlns="http://www.w3.org/2000/svg" id="Layer_1" data-name="Layer 1" viewBox="0 0 100 100" width="135.168" height="135.168"><path d="M50,100h0A50,50,0,0,1,0,50V0H100V50A50,50,0,0,1,50,100Z" fill="#F18701"/></svg></g><g transform="translate(1081.34,&#10;                                675.84) rotate(270, 67.584, 67.584)"><svg xmlns="http://www.w3.org/2000/svg" id="Layer_1" data-name="Layer 1" viewBox="0 0 100 100" width="135.168" height="135.168"><path d="M100,100A50,50,0,0,0,0,100Z" fill="#F7B801"/></svg></g></g></svg>